<?xml version="1.0" encoding="utf-8"?>
<!-- Generator: Adobe Illustrator 23.0.1, SVG Export Plug-In . SVG Version: 6.00 Build 0)  -->
<svg version="1.1" id="cable_xA0_Image_1_" xmlns="http://www.w3.org/2000/svg" xmlns:xlink="http://www.w3.org/1999/xlink" x="0px"
	 y="0px" viewBox="0 0 504 360" style="enable-background:new 0 0 504 360;" xml:space="preserve">
<style type="text/css">
	.st0{opacity:0.3;}
</style>
<g>
	<g>
		<path d="M29,269.9c-0.4-1.7,0.5-2.8,1.3-4.1c6.9-10.7,12.7-22,19-33.1c6.8-12,12.6-24.6,18.8-36.9c6.9-13.9,14.2-27.6,21.1-41.5
			c4.8-9.5,9.2-19.1,12.2-29.3c1.5-4.9,1.6-10,1.1-15c-0.1-1.3,0.4-2.1,1.4-2.8c0.7-0.5,1.1-1.3,1.5-2c0.7-1.3,1-1.5,2.3-0.9
			c4.8,2.4,10.2,3,15.3,4.5c8.4,2.5,16.7,5.3,25.1,7.7c6.5,1.8,13.1,3.3,19.6,5c0.7,0.2,1.3,0.9,1.9,1.3c2.6,1.6,4.3,3.9,5.5,6.7
			c1.4,3.4,2.7,6.9,4.1,10.3c0.4,0.9,0,1.7-0.8,2c-1.3,0.4-1.7,1.5-2.2,2.5c-0.2,0.4-0.5,0.8-0.8,1c-5.6,3.5-10.7,7.7-15.7,11.9
			c-7.9,6.6-15.7,13.3-23.6,20c-1.7,1.4-3.3,3-5,4.4c-0.8,0.7-1.3,0.6-1.9-0.3c0-0.1,0-0.2-0.1-0.2c-2.4-0.8-2.1-3.3-3.3-4.9
			c-0.1-0.2-0.2-0.4-0.3-0.5c-2-0.9-2.5-2.8-3.4-4.5c-1-1.9-1.6-3.9-2.5-5.8c-0.6-1.2-0.4-2.2,0.4-3.1c1.9-2.3,3.7-4.8,5.9-6.8
			c5.3-4.9,10.8-9.5,16.2-14.3c1.4-1.2,2.8-2.4,4.2-3.6c0-0.1,0-0.3,0-0.4c-9.5-2.6-18.9-5.2-28.5-7.8c-0.2,1.6-0.5,2.9-0.5,4.3
			c-0.2,4.3-1.7,8.2-3.1,12.2c-3.8,11.1-9.1,21.6-14.4,32.1c-10.5,20.9-21,41.7-31.5,62.6c-0.8,1.5-1.6,3-2.5,4.7
			c0.7-0.3,1.2-0.6,1.6-0.8c16.4-8.9,33.7-15.7,51.4-21.5c19.4-6.4,39.3-11.1,59.4-14.9c7-1.3,13.9-2.5,20.9-3.7
			c0.8-0.1,1.2-0.4,1.4-1.1c0.8-2.1,1.7-4.2,2.7-6.2c0.4-0.9,0.3-1.5-0.1-2.4c-0.8-1.7-1.4-3.5-2.2-5.2c-0.4-0.9-0.1-1.8,0.7-2
			c1.6-0.5,2.1-1.8,2.6-3c2-0.6,2.9,0.8,3.8,1.9c5.9-9.6,11.7-19.1,17.7-28.9c-12.3,7.3-24.3,14.7-37.3,20.3c0.8,2.1,1.5,4,2.3,6.1
			c0.8-0.9,1.6-1.8,2.6-2.9c0.4,0.3,0.9,0.9,1.6,1.3c3.2,2,3.6,5.5,4.9,8.6c0.9,2,0.1,3.9-0.8,5.7c-0.1,0.2-0.7,0.4-0.9,0.3
			c-0.5-0.4-1.1-0.9-1.4-1.5c-0.7-1.4-1.3-2.7-2.4-3.9c-0.9-1-1.3-2.4-1.9-3.7c-0.2-0.3-0.3-0.6-0.5-1c-0.1,0.6-0.4,1.1-0.3,1.6
			c0.3,2.1-1.1,3.5-1.8,5.2c-0.4,1-1.8,1.3-3.2,0.7c-3.9-1.8-7.4-4.3-10.2-7.6c-1.3-1.5-2.8-2.7-4.2-4.1c-0.4-0.4-0.8-0.9-1-1.4
			c-0.5-1.1-1-2.2-1.5-3.3c0-0.1-0.1-0.3-0.2-0.3c-2.7-1.5-3.4-4.4-4.6-6.9c-0.7-1.5-1.3-3.1-2-4.7c-0.4-1.1-0.2-2,0.9-2.5
			c1.1-0.4,1.5-1.3,2.1-2.1c0.4-0.5,0.8-1,1.3-1.2c18-7.1,34.9-16.3,51.2-26.7c10.7-6.8,21.2-13.7,31.8-20.6c1.8-1.2,3-1,4.3,0.6
			c0.4,0.5,0.9,0.8,1.7,1.4c0.1-0.8,0.1-1.1,0.1-1.5c-0.3-6.4-0.6-12.9-2.2-19.2c-0.5-2.1-1.6-4-2.5-6c-0.4-0.9-0.9-1.8-1-2.8
			c-0.1-0.6,0.2-1.5,0.6-1.8c1.6-1.3,1.7-1.3,2.5-2.9c0.1,0.1,0.3,0.1,0.4,0.2c2.4,3.1,4.7,6.3,7.4,9.2c4,4.4,6.2,9.7,7.6,15.3
			c0.9,3.6,1.5,7.4,1.7,11.1c0.4,7.6,0.6,15.2,0.7,22.7c0.1,3,0,6-0.2,9c-0.3,4.1-0.9,8.1-1.4,12.2c0,0.2,0,0.5,0,0.7
			c3.9-1.3,7.7-2.7,11.5-4c8.6-2.9,17.3-5.1,26.3-5.8c1.9-0.1,3.8-0.1,5.6-0.2c3.3-0.3,6.4,0.9,9.5,1.6c0.2,0,0.3,0.1,0.4,0.2
			c3.2,2.5,6.1,5.3,7.3,9.3c0.3,1,0.7,2,1.1,3.2c1.3-0.8,2.6-1.6,3.8-2.3c13.2-8.3,26.3-16.7,38.8-25.9c13.1-9.7,26-19.6,37.6-31.1
			c5.2-5.1,9.9-10.7,13.7-17.1c2.3-4,3.3-8.2,3.3-12.8c0-0.8-0.3-1.1-0.9-1.4c-3.8-1.7-7.7-2.1-11.8-2.2
			c-10.6-0.3-20.8,1.9-30.7,5.4c-10.5,3.7-20,9.2-28.5,16.3c-7,5.8-13.8,11.7-20.1,18.3c-0.9,1-2,1.8-3.1,2.6
			c-0.5,0.4-0.8,0.3-1.5-0.1c-1.1-0.8-1.4-2-2-3.1c-0.6-1-1.5-1.7-2-2.7c-1.1-2.1-2-4.3-3.1-6.5c-0.6-1.3-0.5-2.5,0-3.8
			c1.5-3.6,3.7-6.7,6.2-9.6c7.4-8.9,16.2-16.2,25.4-23.1c6.9-5.1,14.6-8.5,22.7-11.3c9.7-3.3,19.6-5.1,29.9-4.9
			c5.8,0.1,11.4,1,16.4,4.2c6.9,4.4,11.6,10.6,14.2,18.4c1,2.9,2.2,5.7,2.6,8.7c0.5,3.6,0.3,7.4,0.3,11.1c0,3.4-0.8,6.6-2.2,9.7
			c-2.5,5.3-5.6,10.2-9.3,14.7c-5.9,7.3-12.5,13.8-19.7,19.7c-8.5,7-17.2,13.8-25.9,20.6c-3,2.4-6.2,4.5-9.3,6.7
			c-0.2,0.2-0.4,0.3-0.9,0.7c3.2,0.5,6.1,1,9,1.4c9.6,1.1,19.2,1.8,28.7,3.2c13.7,2,27,5.6,39.5,11.7c2.5,1.2,4.9,2.9,7,4.7
			c2.3,1.9,3.6,4.7,4.6,7.6c0.3,0.9,0.5,2,1,2.8c1.2,2,1.3,4.2,0.8,6.4c-0.4,1.5-1.2,2.8-2,4.1c-0.4,0.7-1.1,0.6-1.9,0.1
			c-0.6-0.4-1.3-0.7-2-0.7c-7.1-0.2-13.9,1.5-20.6,3.5c-5.7,1.7-11.4,3.6-17.2,5.4c-2.6,0.8-5.2,1.4-7.7,2.1c-1.4,0.3-2.9-0.5-3.7-2
			c-0.4-0.7-0.6-1.5-1-2.2c-0.6-1-1.6-1.7-2.1-2.8c-1.3-2.6-2.5-5.3-3.7-8c-0.4-0.9,0.1-1.5,0.8-2c0.4-0.3,1-0.7,1.2-1.1
			c0.4-1.1,1.3-1.6,2.3-2.1c2.8-1.2,5.7-2.4,8.5-3.6c0.4-0.2,0.7-0.3,1.4-0.6c-13.7-2.1-27.3-2-40.7-5.3c0,1,0.1,1.8,0.1,2.6
			c0,2.4,0,4.8,0,7.2c-0.1,2.7-0.3,5.4-1.2,8c-2,5.8-5.1,11.1-8.7,16c-1.2,1.6-2.4,3-3.8,4.8c4.6-0.5,8.9-1,13.2-1.5
			c-1.2-2.8-2.5-5.7-3.8-8.6c-0.6-1.3-0.2-1.8,1-2.6c0.8-0.5,1.4-1.5,2.2-2.5c1.6-0.2,2.8,1.3,4.2,2.3c2.4,1.8,3.6,4.3,4.5,7
			c0.4,1,0.8,2,1.2,3c0.1,0.3,0.5,0.6,0.8,0.6c2,0.1,3.9,0,6.1,0c-0.8-1.8-1.4-3.3-2.2-4.7c-0.3-0.5-1.1-0.7-1.4-1.2
			c-2.4-3.3-3.9-7.1-5.2-11c-0.2-0.4,0.4-1.6,0.8-1.7c1.5-0.6,2-1.9,2.6-3.1c1.4-0.2,2.6,0.1,3.4,1.5c0.2,0.3,0.6,0.7,0.9,0.7
			c1.2,0.1,1.6,1,2.2,1.8c2.4,3.2,3.4,7,4.7,10.7c0.7,1.8,0.5,4.1-0.9,5.9c-0.2,0.2-0.2,0.5-0.4,0.9c0.7,0,1.2,0,1.8,0
			c7,0.3,14.1,0.2,21.1,1c9.8,1.2,18.9,4.4,26.8,10.6c6.5,5.1,11,11.5,13.5,19.2c0.8,2.6,2,5.1,2.5,7.8c0.4,2.3,0.3,4.8,0,7.1
			c-0.2,1.3-1.1,2.6-1.9,3.8c-0.5,0.9-1.4,0.8-2-0.1c-0.1-0.1-0.1-0.3-0.1-0.3c-2.4-0.6-2.3-3-3.1-4.6c-0.6-1.2-1.8-1.3-2.4-2.4
			c-0.3,0.2-0.6,0.4-1.1,0.8c-0.1-0.9-0.2-1.7-0.3-2.4c0.1,0,0.2,0,0.2,0c-1.1-2.7-2.3-5.4-3.5-8c-0.3-0.6-0.9-1.2-1.6-1.5
			c-4-2.2-8.3-3.6-12.7-4.9c-5.2-1.5-10.6-1.9-15.9-2.2c-8-0.5-16-0.3-23.9-0.1c-3.5,0.1-6.9,0.4-10.4,0.8c-4.6,0.5-9.2,1-13.8,1.6
			c-4.5,0.6-9,1.3-13.5,2.2c-7.5,1.5-15,3.2-22.4,5c-3.7,0.9-7.3,2.1-11,3.4c1.8,0.3,3.7,0.5,5.5,0.9c8.2,1.5,16.5,2.9,24.7,4.7
			c5,1.1,9.9,2.5,14.7,4.4c5.8,2.3,10.8,5.9,13.3,12c0.6,1.5,1.1,3.1,1.2,4.6c0.2,1.9-0.7,2.7-2.7,3c-4.4,0.7-8.7-0.2-13.1-0.9
			c-6.5-1-12.9-2-19.4-3c-4.5-0.7-9.1-1.4-13.6-2.1c-3.9-0.6-7.8-1-11.7-1.5c-3.7-0.5-7.4-0.9-11.2-1.3c-5-0.5-10.1-0.9-15.1-1.3
			c-5.1-0.4-10.1-0.7-15.2-0.9c-4.2-0.2-8.3-0.3-12.5-0.3c-10,0-20.1,0.1-30.1,0c-2.9,0-5.5,1.2-8.2,1.7c-2.7,0.6-5.2,0.9-7.8-0.5
			c-0.4-0.2-0.8-0.3-1.3-0.3c-4.4,0.4-8.8,0.7-13.2,1.2c-3.5,0.4-7,0.8-10.5,1.3c-4.6,0.7-9.3,1.4-13.9,2.2
			c-5.9,1.1-11.7,2.3-17.5,3.5c-4.1,0.8-8.1,1.7-12.1,2.7c-0.7,0.2-1.2,0.2-1.5-0.6c-0.1-0.2-0.3-0.2-0.4-0.4
			c-0.5-0.5-1.2-0.9-1.5-1.5c-0.6-1.1-1.1-2.3-1.6-3.4c-0.1-0.2-0.2-0.5-0.4-0.6c-2.1-0.9-2.7-3-3.6-4.8c-1.1-2.1-1.9-4.4-2.8-6.6
			c-0.4-1.1-0.1-2,1-2.4c1.1-0.4,1.5-1.4,2.1-2.3c0.2-0.3,0.5-0.8,0.8-0.9c14.2-4.6,27.3-11.5,40.5-18.4c3.6-1.9,7.2-3.9,10.8-5.8
			c0.3-0.2,0.6-0.4,1-0.6c-1.9-3.8-2.8-7.8-2.7-12.1c-5.7,1.1-11.2,2.1-16.7,3.2c-8.6,1.8-17.1,3.7-25.6,5.7c-6,1.4-11.9,3-17.7,4.9
			c-8.7,2.8-17.4,6-26.1,8.9c-7.7,2.6-15.1,5.9-22.4,9.4c-14.2,6.8-27.8,14.7-40.3,24.2c-3.9,2.9-7.5,6.2-11.2,9.3
			c-1.4,1.2-1.2,0.8-2.8,0c-2.3-1.1-2.2-3.5-3.4-5.2c-0.5-0.7-1-1.4-1.3-2.3c-1.2-3.1-2.8-6.1-4-9.3c-0.9-2.2-0.7-4.5,0.6-6.6
			c0.3-0.5,0.5-1.1,0.8-1.7C26.8,268.8,28.1,268.7,29,269.9z M266.3,254.7c11.3,0.7,22.7,1.3,34,2c-0.1-0.2-0.2-0.5-0.3-0.7
			c-1.1-2.5-2.3-5.1-3.4-7.6c-0.6-1.4-0.3-2.1,1-3c0.6-0.4,1.3-0.8,1.5-1.4c0.5-1.5,1.7-2,3-2.5c1.1-0.5,2.2-0.9,3.3-1.4
			c2.2-1,4.6-1.8,6.7-2.9c8.3-4.4,16-9.8,23.2-15.9c7-5.9,13.8-11.9,19.4-19.2c3-3.9,5.7-7.9,7.2-12.6c1.7-5.3,0.8-10.6,0.5-15.9
			c-17.7,11.1-35.4,22.1-53.2,33.2c0.6,1.4,1.3,3,1.8,4.6c0.3,0.9,0.4,1.8,0.5,2.8c0.3,2.5-0.9,4.5-2,6.6c-0.7,1.4-3,1.5-4.3,0.4
			c-0.8-0.6-1.8-1-2.8-1.2c-1-0.2-2.2,0-3.2-0.1c-0.9-0.1-1.4,0.2-2,0.9c-6.8,7.6-13.5,15.3-20.4,22.8
			C273.4,247.3,269.8,251,266.3,254.7z M223.5,200.6c0.4,0,0.6,0,0.8,0c5.5-0.7,11-1.3,16.6-2c0.8-0.1,1.1-0.4,1.3-1.1
			c4.5-13.3,8.5-26.7,11.2-40.4c0.2-0.8,0.3-1.6,0.5-2.3c0.1-0.8,0.2-1.6,0.4-2.6C244,168.4,233,184,223.5,200.6z M261.8,197.1
			c0.7,0,1.3-0.1,1.9-0.1c4.8-0.2,9.5-0.4,14.3-0.7c0.8,0,1.6-0.2,2.3-0.6c5.5-3.2,11-6.4,16.5-9.6c0.4-0.2,0.9-0.5,1.2-0.8
			c2.4-3,4.7-5.9,7.1-8.9c0,0,0-0.1-0.1-0.2c-0.6,0.1-1.2,0.3-1.9,0.4c-10.4,2.4-20.3,6.1-30.3,9.8c-1.2,0.4-2.6,1.6-3.6-0.4
			c-1.6-0.4-1.8-1.8-2.3-2.9c-0.2-0.5-0.5-0.9-0.8-1.6C264.6,186.8,263.2,191.9,261.8,197.1z M229,224.8c0-0.1-0.1-0.2-0.1-0.3
			c-1.4,0.2-2.8,0.4-4.2,0.5c-3.8,0.5-7.6,1-11.4,1.5c-0.7,0.1-1.2,0.4-1.2,1.3c0,0.7-0.3,1.5-0.4,2.2c-0.2,1.5-0.2,2.9-0.4,4.7
			C217.5,231.4,223.3,228.1,229,224.8z M224.8,254.9c0,0.1,0.1,0.2,0.1,0.3c1.3-0.1,2.6-0.1,3.9-0.2c0.6,0,1.2-0.2,1.8-0.4
			c-0.3-0.6-0.5-1.3-0.9-1.9c-0.1-0.2-0.3-0.2-0.5-0.4C227.8,253.2,226.3,254,224.8,254.9z"/>
		<path class="st0" d="M399.6,102.8c0.1,9.4-7.4,17.1-17.2,16.9c-8.9-0.2-16.7-7.3-16.4-17.4c0.3-8.7,7.2-16.3,17.2-16.1
			C392.2,86.4,399.5,93.4,399.6,102.8z M389.9,99.6c0.8,0.4,1.6,0.7,2.3,1.1c0.7,0.4,1,2.3,0.5,2.5c-1,0.5-2,1.3-3.3,0.8
			c-0.3-0.1-0.8,0.2-1,0.4c-0.7,1-1.2,2.2-1.9,3.2c-1.7,2.5-3.3,5.1-5.1,7.5c-0.7,0.9-1.9,1.5-2.8,2.2c8.3,2.4,17-3.1,18.2-12.3
			c0.9-7.4-3.9-15-12.9-16c-8.2-0.9-15.1,4.9-15.9,13.1c-0.7,8,5.3,13.9,9.3,14.5c1.5-4.9,5-8.8,7.2-13.3c-0.2,0-0.4,0-0.6-0.1
			c-1.2-0.1-2.1-1-2-2.2c0.1-1.1,0.8-1.8,2-1.8c0.8,0,1.6,0,2.6,0c0.5-1.9,1-3.8,1.4-5.7c0.1-0.7,0.4-1,1.1-1c0.8,0,1.3,0.2,1.5,1
			C390.8,95.7,390.7,97.7,389.9,99.6z"/>
		<path d="M115.7,170.7c2.2,0,3.6,1.1,5.2,2.4c2.4,1.8,3.5,4.3,4.4,7c0.6,1.5,1.1,3.1,1.6,4.6c0.1,0.2,0.3,0.5,0.2,0.7
			c-0.4,1.6-0.8,3.3-1.3,4.9c-0.2,0.7-0.7,1.3-1.1,2c-0.6,1.3-1.3,1.3-2.3,0.3c-0.6-0.6-1.6-0.9-1.9-1.9c-0.2-0.7-0.5-1.5-1-2.2
			c-1.3-1.9-2.8-3.6-3.9-5.6c-1.2-2.3-2.1-4.7-3.1-7.1c-0.4-0.9-0.1-1.8,0.7-2.1C114.6,173.2,115.1,172,115.7,170.7z"/>
		<path d="M255,47.6c1.8-0.6,2.6,0.5,3.4,1.7c0.1,0.1,0.2,0.2,0.3,0.2c2.6,0.5,3.2,2.8,4.2,4.6c1.3,2.5,2.4,5.2,3.2,8
			c0.5,2,0.4,4.2-0.9,6c-0.3,0.5-0.4,1.1-0.8,1.6c-0.3,0.4-0.7,0.9-1.2,1c-0.3,0.1-0.7-0.5-1.1-0.8c-0.1-0.1-0.1-0.2-0.2-0.3
			c-1.6-0.2-1.7-1.6-2.2-2.6c-0.7-1.3-1.2-2.6-2.5-3.6c-1.2-1-1.9-2.6-2.6-4.1c-1-2.1-1.9-4.4-2.8-6.6c-0.4-1.1-0.2-2,0.9-2.4
			C254.1,50,254.4,48.7,255,47.6z"/>
		<path d="M316.6,112.5c-1-2.3-1.9-4.6-2.9-6.9c-0.4-1,0-1.8,0.8-2.1c1.5-0.5,2-1.7,2.5-2.9c1.7-0.5,2.6,0.4,3.4,1.6
			c0.1,0.1,0.2,0.3,0.4,0.3c2.6,0.5,3.2,2.9,4.2,4.8c1.3,2.5,2.3,5.1,3.1,7.8c0.5,2,0.4,4.1-0.9,5.9c-0.4,0.5-0.5,1.3-0.9,1.8
			c-0.3,0.4-0.8,0.8-1.3,0.9c-0.2,0.1-0.6-0.5-0.9-0.7c-0.1-0.1-0.2-0.3-0.3-0.3c-1.5-0.2-1.7-1.5-2.2-2.6c-0.5-1-0.8-2.1-1.5-3
			c-0.7-1-1.7-1.7-2.6-2.6C317.2,113.8,316.9,113.1,316.6,112.5z"/>
		<path d="M109.2,180.9c1.5-0.3,2.6,0.4,3.3,1.7c0.1,0.1,0.1,0.2,0.2,0.3c2.9,0.9,3.5,3.6,4.7,5.8c1,1.9,1.8,4,2.3,6.1
			c0.5,2,0.6,4.1-0.7,6c-0.3,0.5-0.5,1.1-0.8,1.6c-0.6,1.3-1.2,1-2.3,0.4c-2.2-1.2-2.2-3.6-3.5-5.2c-1.3-1.5-2.5-3.1-3.4-4.8
			c-1.2-2.2-2-4.6-3-6.9c-0.4-0.9-0.1-1.5,0.6-2C108.5,182.4,108.5,182.4,109.2,180.9z"/>
		<path d="M254.8,64.2c0.6,0.4,1.1,0.8,1.5,1.2c2.3,2.7,4.9,5.2,6.8,8.1c1.8,2.7,3.1,5.8,2.1,9.3c-0.4,1.3-1.2,2.6-1.9,3.8
			c-0.2,0.3-1.2,0.4-1.4,0.1c-1.6-1.5-2.9-3.3-3.8-5.4c-0.1-0.3-0.2-0.6-0.3-0.7c-2.6-1.6-3.4-4.5-4.6-7c-0.7-1.3-1.1-2.8-1.7-4.2
			c-0.4-0.9,0-1.7,0.7-2C253.7,66.9,254.3,65.7,254.8,64.2z"/>
		<path d="M316.6,112.5c0.3,0.7,0.6,1.3,1,2c0.9,2.5,1.8,5,2.8,7.6c0.3,0.7,0.2,1.3-0.3,1.9c-0.6,0.8-1,1.8-1.4,2.7
			c-0.6,1.2-0.8,1-1.9,0.4c-1.8-1-1.8-3-2.8-4.4c-0.9-1.2-2-2.3-2.6-3.6c-1.1-2.1-1.9-4.3-2.8-6.4c-0.4-0.8,0.1-1.3,0.7-1.8
			c0.7-0.6,1.4-1.3,1.9-2.1c0.9-0.4,1.7,0,2.4,0.8C314.3,110.7,315.5,111.5,316.6,112.5z"/>
		<path class="st0" d="M381.5,92c0.4,0.3,1.2,0.6,1.4,1.1c0.3,0.9,0.1,1.8-1,2.2c-1.7,0.8-3.3,1.7-5,2.5c-1.1,0.6-1.7,2-1.7,3.3
			c0,1.7,0.8,2.9,1.9,4c0.9,0.9,1.9,1.7,2.8,2.6c0.3,0.3,0.4,0.7,0.6,1c-0.4,0.2-0.9,0.6-1.3,0.6c-1.4-0.4-2.7-0.9-4-1.4
			c-0.2-0.1-0.4-0.1-0.5-0.3c-1.6-1.8-3.4-3.5-3.4-6.1c0-3.1,0.6-5.7,4-7.2c1.4-0.6,2.7-1.2,4.1-1.8C380,92.3,380.6,92.2,381.5,92z"
			/>
	</g>
</g>
</svg>
