<svg xmlns="http://www.w3.org/2000/svg" viewBox="0 0 291.27 191.91"><defs><style>.cls-1{fill:#fff;}</style></defs><g id="Layer_2" data-name="Layer 2"><g id="cable_Image" data-name="cable Image"><path d="M286.79,107.38c-.55-1.61-1.24-3.18-1.81-4.62l5.73-3.58a23.64,23.64,0,0,0-6.6-5.37c-26.12-.35-52.45-1.12-78.33,2.36-13.89,1.87-27.7,4.15-41.61,5.88l-1,.17a6.77,6.77,0,0,1-.84.15c-2.83.5-5.66,1-8.48,1.53a466,466,0,0,0-59.41,14.93c-17.69,5.84-35,12.59-51.38,21.52-.46.25-.94.46-1.63.8.91-1.74,1.71-3.2,2.46-4.7q15.78-31.29,31.55-62.6c5.28-10.47,10.63-20.91,14.41-32,1.35-4,2.83-7.92,3.06-12.18.07-1.36.32-2.71.52-4.31L122,33.13v.44c-1.42,1.22-2.84,2.42-4.25,3.65-5.41,4.73-10.9,9.39-16.2,14.26a68.19,68.19,0,0,0-5.89,6.77,2.69,2.69,0,0,0-.37,3.1c.91,1.91,1.56,3.94,2.53,5.8.86,1.66,1.41,3.62,3.36,4.5.15.07.22.32.34.48,1.17,1.58.88,4.14,3.28,4.91,0,0,.06.14.1.21.53.86,1.11,1,1.87.29,1.67-1.48,3.31-3,5-4.43,7.86-6.67,15.7-13.36,23.6-20A136.07,136.07,0,0,1,151.11,41.2a2.56,2.56,0,0,0,.79-1c.55-1,.9-2.06,2.2-2.48a1.42,1.42,0,0,0,.81-2c-1.35-3.44-2.65-6.91-4.07-10.32a13.65,13.65,0,0,0-5.48-6.66c-.66-.41-1.22-1.1-1.93-1.28-6.53-1.7-13.12-3.13-19.6-5-8.41-2.4-16.7-5.17-25.09-7.65C93.64,3.34,88.25,2.8,83.4.35c-1.3-.65-1.65-.41-2.3.87a5.71,5.71,0,0,1-1.49,2,2.77,2.77,0,0,0-1.38,2.79,38,38,0,0,1-1.09,15c-3,10.19-7.4,19.8-12.15,29.25C58,64.2,50.81,78,43.87,91.84c-6.18,12.35-12,24.88-18.79,36.92-6.26,11.07-12,22.41-19,33.09-.8,1.24-1.71,2.44-1.31,4.09-.95-1.2-2.24-1.11-2.85.19-.28.58-.51,1.18-.83,1.73a7.25,7.25,0,0,0-.58,6.61c1.25,3.12,2.83,6.11,4,9.25A9.41,9.41,0,0,0,5.92,186c1.2,1.65,1.07,4,3.39,5.17,1.58.78,1.36,1.17,2.78,0,3.74-3.14,7.37-6.4,11.25-9.34a230.25,230.25,0,0,1,40.34-24.2,197.07,197.07,0,0,1,22.37-9.43c8.71-2.89,17.33-6.09,26.07-8.9,5.83-1.88,11.76-3.47,17.72-4.91,5.17-1.24,10.37-2.41,15.57-3.55A143.15,143.15,0,0,1,161.84,127q4.33-.74,8.7-1.3l1.58-.3a58.11,58.11,0,0,1,8.09-1.24,60.84,60.84,0,0,1,6-1.26,82.34,82.34,0,0,1,13.43-2c2.94-.54,5.92-.94,8.9-1.19A176.37,176.37,0,0,1,234.66,118c2.1,0,4.2-.05,6.3-.09,3-.14,6.09-.26,9.13-.37a94.76,94.76,0,0,1,14.47-.74c1.56-.07,3.12-.13,4.68-.17l4.29-.42a2.09,2.09,0,0,1,1.42-.38,26.58,26.58,0,0,1,3.23.09,6.39,6.39,0,0,1,2.84,1.24c1.23,1,3.54,1,4.27-.41,1.09-2.07,2.34-4.11,2-6.61A14.26,14.26,0,0,0,286.79,107.38Z"/><path d="M91.43,66.75c2.17,0,3.63,1.14,5.25,2.37,2.44,1.84,3.48,4.34,4.44,7,.56,1.52,1.09,3.06,1.63,4.59.08.22.25.47.2.67-.41,1.64-.81,3.28-1.33,4.89a14.57,14.57,0,0,1-1.05,2c-.65,1.32-1.34,1.32-2.34.31-.63-.63-1.6-.9-1.93-1.89a8.64,8.64,0,0,0-1-2.17c-1.28-1.9-2.84-3.63-3.94-5.62-1.24-2.25-2.1-4.72-3.15-7.08a1.44,1.44,0,0,1,.72-2.1C90.4,69.18,90.92,68.05,91.43,66.75Z"/><path d="M85,76.93a2.9,2.9,0,0,1,3.29,1.65c.06.1.14.23.24.26,2.88.87,3.52,3.6,4.67,5.81a28.4,28.4,0,0,1,2.35,6.1,7.08,7.08,0,0,1-.69,6,11.34,11.34,0,0,0-.77,1.61c-.62,1.33-1.16,1-2.32.38-2.24-1.15-2.15-3.58-3.5-5.17a28.22,28.22,0,0,1-3.42-4.79c-1.18-2.19-2-4.58-3-6.87a1.51,1.51,0,0,1,.55-2C84.27,78.42,84.28,78.44,85,76.93Z"/><path class="cls-1" d="M291.27,99.93c-.18-.26-.37-.51-.56-.75L285,102.76c.57,1.44,1.26,3,1.81,4.62a14.26,14.26,0,0,1,.52,2.77c.32,2.5-.93,4.54-2,6.61-.73,1.4-3,1.46-4.27.41a6.39,6.39,0,0,0-2.84-1.24,26.58,26.58,0,0,0-3.23-.09,2.09,2.09,0,0,0-1.42.38l2.33-.24a4.22,4.22,0,0,1,3.24.87,4.37,4.37,0,0,1,2.48,2.42l2.42.06a13,13,0,0,0,5-5.08c.36-2.65.87-5.41,0-7.5A5.44,5.44,0,0,1,291.27,99.93Z"/></g></g></svg>